# xmcd
#
# Track frame offsets: 
#        150
#        12867
#        24013
#        38420
#        49226
#        62700
#        73607
#        87006
#        102519
#        115280
#        128967
#        144739
#        157917
#        173633
#        186807
#        205546
#        219105
#        233283
#        245891
#        259037
#        268029
#
# Disc length: 3744 seconds
#
# Revision: 0
# Processed by: cddbd v1.5.2PL0 Copyright (c) Steve Scherf et al.
# Submitted via: ExactAudioCopy v1.0b4
#
DISCID=130e9e15
DTITLE=Don Williams - You're My Best Friend * Harmony * Country Boy
DYEAR=2013
DGENRE=Country
TTITLE0=You're My Best Friend
TTITLE1=Help Yourselves To Each Other
TTITLE2=I Don't Wanna Let Go
TTITLE3=Sweet Fever
TTITLE4=Someone Like You
TTITLE5=(Turn Out The Light And) Love Me Tonight
TTITLE6=Where Are You
TTITLE7=Tempted
TTITLE8=You're The Only One
TTITLE9=Reason To Be
TTITLE10=Till The Rivers All Run Dry
TTITLE11=You Keep Coming 'Round
TTITLE12=Don't You Think It's Time
TTITLE13=I Don't Want The Money
TTITLE14=Where The Arkansas River Leaves Oklahoma
TTITLE15=Say It Again
TTITLE16=Maybe I Just Don't Know
TTITLE17=Magic Carpet
TTITLE18=Time
TTITLE19=Ramblin'
TTITLE20=She Never Knew Me
EXTD=
EXTT0=
EXTT1=
EXTT2=
EXTT3=
EXTT4=
EXTT5=
EXTT6=
EXTT7=
EXTT8=
EXTT9=
EXTT10=
EXTT11=
EXTT12=
EXTT13=
EXTT14=
EXTT15=
EXTT16=
EXTT17=
EXTT18=
EXTT19=
EXTT20=
PLAYORDER=
